<?xml version="1.0" encoding="utf-8"?>
<!-- Generator: Adobe Illustrator 23.1.0, SVG Export Plug-In . SVG Version: 6.00 Build 0)  -->
<svg version="1.1" id="Layer_1" xmlns="http://www.w3.org/2000/svg" xmlns:xlink="http://www.w3.org/1999/xlink" x="0px" y="0px"
	 viewBox="0 0 100 100" style="enable-background:new 0 0 100 100;" xml:space="preserve">
<style type="text/css">
	.st0{fill-rule:evenodd;clip-rule:evenodd;}
</style>
<g>
	<path class="st0" d="M73.8,12.7L38.6,47.8l-3.8,18.5l18.5-3.8l35.2-35.2L73.8,12.7z M51.8,59.3l-12.3,2.4l2.4-12.3L51.8,59.3z"/>
	<path class="st0" d="M94.4,14.5l-7.8-7.8c-1.9-1.9-5.1-1.9-7.2,0l-3.2,3.5l14.8,15l3.5-3.5C96.3,19.6,96.3,16.7,94.4,14.5z"/>
	<path d="M18.8,18h44l-5.9,5.6H18.8c-3.8,0-7,3.2-7,7v51.8c0,3.8,3.2,7,7,7h51.8c3.8,0,7-3.2,7-7V44.3l5.6-5.6v43.7
		c0,7-5.6,12.6-12.6,12.6H18.8c-7,0-12.6-5.6-12.6-12.6V30.6C6.2,23.7,11.8,18,18.8,18z"/>
</g>
</svg>
