<svg id="Layer_1" data-name="Layer 1" xmlns="http://www.w3.org/2000/svg" width="58.42" height="98.65" viewBox="0 0 58.42 98.65"><defs><style>.cls-1{fill:#fff;stroke:#000;stroke-miterlimit:10;}.cls-2{fill:none;}</style></defs><title>kanganru_logo_bw3</title><path d="M13.13,7.73l1-6.93,7.8,1.1,2.92,3.31L26.14.82,30,1.23l4.9,5.48.21,4.72,1.6,5,3.92.77,7.74,6.41,3.85,6.82,6,4.05,2.19,3.06L60,42.29l-4.08,2.6,0,2.16-2.71,1-8.56-2.86-7.18,1.09-.84,6,2,2.79.39.83,2.62,10.34.45,1.94-1.23-.4L39.55,77l-.41,2.13-1.61-.77-6.09,9.29-1.1,1.88-1.75-.61-.66,1-1.58,2.44-1.87,2.91L22.93,97.7c-.38.58-.75,1.15-1.1,1.75L21.13,98,19.6,94.93,18.05,91.8c-.34-.7-.73-1.37-1.08-2.07l-1.54-3.09-.37-.75-1.73.25L7.51,72.5l-2.37.83L3.91,61.81l-.09-1.13L2,59.41,6.31,45.52l6.82-9.4,4.78-8.42-1.52-.83,4.13-7.71-2.68-.83Z" transform="translate(-1.97 -0.8)"/><polyline points="58.01 41.49 54.81 37.6 56.37 34.06 58.37 36.95"/><polygon class="cls-1" points="36.4 26.44 41.28 25.52 42.21 27.21 40.87 29.39 36.4 26.44"/><line class="cls-2" x1="22.68" y1="4.56" x2="32.94" y2="5.7"/><polyline class="cls-2" points="18.6 18.66 23.1 4.56 11.53 6.72"/><polyline class="cls-2" points="32.7 5.94 26.58 10.44 22.8 4.32"/><line class="cls-2" x1="33.9" y1="13.02" x2="29.34" y2="14.58"/><polyline class="cls-2" points="20.46 12.6 26.52 10.41 29.54 14.7"/><line class="cls-2" x1="18.55" y1="18.61" x2="26.59" y2="10.47"/><polyline class="cls-2" points="18.61 18.62 23.81 23.5 15.71 26.88"/><line class="cls-2" x1="29.32" y1="14.56" x2="32.81" y2="21.45"/><line class="cls-2" x1="23.71" y1="23.5" x2="32.79" y2="21.32"/><line class="cls-2" x1="32.82" y1="21.43" x2="34.66" y2="15.75"/><line class="cls-2" x1="32.65" y1="21.41" x2="41.87" y2="19.08"/><polyline class="cls-2" points="41.21 25.55 45.7 22.5 32.73 21.39 36.38 26.45"/><polyline class="cls-2" points="13.13 85.21 19.87 76.06 26.64 88.24"/><polyline class="cls-2" points="19.65 76.09 27.8 74.03 28.25 88.53"/><polyline class="cls-2" points="27.51 74.19 33.57 69.19 35.48 77.73"/><polyline class="cls-2" points="33.35 69.29 38.89 66.9 39.63 65.03"/><polyline class="cls-2" points="13.13 85.18 11.52 66.06 5.53 71.67"/><line class="cls-2" x1="11.75" y1="65.87" x2="20.29" y2="76.57"/><polyline class="cls-2" points="11.74 66.29 10.6 59.06 1.89 59.91 5.65 72.12"/><line class="cls-2" x1="1.94" y1="60.09" x2="11.64" y2="66.13"/><line class="cls-2" x1="19.83" y1="75.91" x2="19.96" y2="55.64"/><polyline class="cls-2" points="19.97 75.88 29.09 65.28 20.01 55.6 11.6 66.17"/><line class="cls-2" x1="27.86" y1="74.02" x2="24.4" y2="70.71"/><polyline class="cls-2" points="33.63 69.44 28.98 65.24 37.31 55.6"/><line class="cls-2" x1="39.47" y1="65.28" x2="33.93" y2="59.66"/><polyline class="cls-2" points="1.99 59.93 11.38 51.61 4.25 45.04"/><line class="cls-2" x1="11.59" y1="51.4" x2="10.61" y2="59.21"/><line class="cls-2" x1="11.54" y1="51.43" x2="16.96" y2="59.56"/><polyline class="cls-2" points="33.24 60.14 29.48 52.48 19.84 55.58"/><line class="cls-2" x1="29.34" y1="52.48" x2="34.82" y2="51.68"/><polyline class="cls-2" points="43.45 44.73 47.37 42.29 53.94 44.24"/><polyline class="cls-2" points="54.8 37.7 47.97 36.98 47.74 42.42"/><polyline class="cls-2" points="48.1 36.91 43.45 32.86 53.38 31.64"/><line class="cls-2" x1="43.52" y1="32.89" x2="42.2" y2="27.02"/><polyline class="cls-2" points="43.45 32.76 29.46 40.58 32.69 21.28"/><line class="cls-2" x1="39.55" y1="34.86" x2="47.81" y2="40.71"/><line class="cls-2" x1="39.82" y1="34.77" x2="35.46" y2="45.7"/><line class="cls-2" x1="29.52" y1="40.66" x2="35.51" y2="45.6"/><polyline class="cls-2" points="29.37 52.5 25.75 43.03 29.32 40.69"/><polyline class="cls-2" points="9.77 37.54 11.08 51.57 16.1 48.6 19.98 55.56 27.89 48.05"/><line class="cls-2" x1="16.17" y1="48.64" x2="24.96" y2="50.65"/><polyline class="cls-2" points="10.39 42.67 16.06 48.75 25.59 43.14"/><line class="cls-2" x1="23.66" y1="23.32" x2="31.67" y2="27.86"/><polyline class="cls-2" points="26.15 24.59 21.59 33.9 13.03 32.02"/><line class="cls-2" x1="21.65" y1="33.61" x2="29.96" y2="38.34"/><line class="cls-2" x1="21.61" y1="33.98" x2="22.72" y2="44.77"/><line class="cls-2" x1="9.83" y1="37.61" x2="21.61" y2="34.04"/><line class="cls-2" x1="16.24" y1="35.69" x2="19.09" y2="46.93"/></svg>