<svg id="Layer_1" data-name="Layer 1" xmlns="http://www.w3.org/2000/svg" width="56.26" height="94.76" viewBox="0 0 56.26 94.76"><defs><style>.cls-1{fill:#fff;}.cls-1,.cls-2,.cls-3{stroke:#000;stroke-miterlimit:10;}.cls-3{fill:none;}</style></defs><title>kanganru_logo_bw</title><path class="cls-1" d="M13.77,8.71l.91-6.55,7.37,1L24.8,6.33l1.26-4.15,3.61.39L34.3,7.74l.19,4.46L36,16.93l3.7.74,7.31,6,3.63,6.43L56.33,34l2.07,2.89L58,41.34l-3.85,2.45,0,2.05-2.56,1-8.08-2.71-6.78,1L36,50.76l1.87,2.64.38.78,2.46,9.76.43,1.83-1.16-.37-1.22,8.71-.39,2-1.51-.74-5.76,8.78-1,1.78-1.65-.58-.62,1-1.49,2.3L24.5,91.38,23,93.66c-.36.55-.71,1.08-1,1.65L21.33,94l-1.44-2.93-1.46-3c-.33-.67-.69-1.3-1-2L16,83.21l-.35-.71L14,82.74,8.47,69.86l-2.23.79L5.07,59.77,5,58.71,3.24,57.5,7.33,44.39l6.45-8.88,4.51-7.95-1.43-.78,3.9-7.28-2.54-.78Z" transform="translate(-2.65 -1.6)"/><polyline class="cls-2" points="55.35 39.74 52.34 36.07 53.81 32.73 55.7 35.45"/><polygon class="cls-2" points="34.95 25.53 39.56 24.66 40.44 26.26 39.18 28.31 34.95 25.53"/><line class="cls-3" x1="22" y1="4.87" x2="31.69" y2="5.95"/><polyline class="cls-3" points="18.15 18.18 22.4 4.87 11.47 6.91"/><polyline class="cls-3" points="31.46 6.17 25.68 10.42 22.11 4.65"/><line class="cls-3" x1="32.59" y1="12.86" x2="28.29" y2="14.33"/><polyline class="cls-3" points="19.91 12.46 25.63 10.39 28.48 14.45"/><line class="cls-3" x1="18.1" y1="18.14" x2="25.69" y2="10.46"/><polyline class="cls-3" points="18.16 18.15 23.07 22.75 15.42 25.95"/><line class="cls-3" x1="28.27" y1="14.32" x2="31.57" y2="20.82"/><line class="cls-3" x1="22.98" y1="22.75" x2="31.54" y2="20.7"/><line class="cls-3" x1="31.57" y1="20.8" x2="33.31" y2="15.44"/><line class="cls-3" x1="31.41" y1="20.78" x2="40.12" y2="18.58"/><polyline class="cls-3" points="39.49 24.69 43.74 21.8 31.49 20.77 34.93 25.54"/><polyline class="cls-3" points="12.99 81.02 19.35 72.38 25.74 83.88"/><polyline class="cls-3" points="19.14 72.41 26.84 70.46 27.27 84.16"/><polyline class="cls-3" points="26.57 70.61 32.29 65.89 34.08 73.96"/><polyline class="cls-3" points="32.07 65.98 37.31 63.73 38.01 61.97"/><polyline class="cls-3" points="12.99 80.99 11.47 62.94 5.8 68.24"/><line class="cls-3" x1="11.68" y1="62.76" x2="19.75" y2="72.86"/><polyline class="cls-3" points="11.67 63.16 10.59 56.33 2.37 57.13 5.92 68.66"/><line class="cls-3" x1="2.42" y1="57.3" x2="11.57" y2="63.01"/><line class="cls-3" x1="19.31" y1="72.24" x2="19.43" y2="53.09"/><polyline class="cls-3" points="19.44 72.21 28.05 62.2 19.48 53.06 11.54 63.04"/><line class="cls-3" x1="26.89" y1="70.45" x2="23.62" y2="67.33"/><polyline class="cls-3" points="32.34 66.13 27.95 62.16 35.82 53.06"/><line class="cls-3" x1="37.85" y1="62.2" x2="32.62" y2="56.89"/><polyline class="cls-3" points="2.47 57.15 11.34 49.29 4.6 43.09"/><line class="cls-3" x1="11.53" y1="49.1" x2="10.61" y2="56.47"/><line class="cls-3" x1="11.49" y1="49.13" x2="16.6" y2="56.8"/><polyline class="cls-3" points="31.97 57.35 28.42 50.12 19.32 53.04"/><line class="cls-3" x1="28.29" y1="50.12" x2="33.46" y2="49.36"/><polyline class="cls-3" points="41.61 42.8 45.31 40.5 51.52 42.34"/><polyline class="cls-3" points="52.33 36.16 45.88 35.48 45.66 40.62"/><polyline class="cls-3" points="46 35.42 41.61 31.59 50.99 30.43"/><line class="cls-3" x1="41.67" y1="31.62" x2="40.43" y2="26.07"/><polyline class="cls-3" points="41.61 31.49 28.4 38.88 31.45 20.66"/><line class="cls-3" x1="37.93" y1="33.48" x2="45.73" y2="39"/><line class="cls-3" x1="38.18" y1="33.39" x2="34.07" y2="43.71"/><line class="cls-3" x1="28.46" y1="38.96" x2="34.12" y2="43.62"/><polyline class="cls-3" points="28.32 50.13 24.9 41.2 28.27 38.98"/><polyline class="cls-3" points="9.81 36.01 11.05 49.26 15.79 46.45 19.45 53.02 26.92 45.94"/><line class="cls-3" x1="15.86" y1="46.49" x2="24.16" y2="48.39"/><polyline class="cls-3" points="10.39 40.85 15.76 46.59 24.75 41.3"/><line class="cls-3" x1="22.93" y1="22.58" x2="30.48" y2="26.87"/><polyline class="cls-3" points="25.28 23.78 20.97 32.58 12.89 30.8"/><line class="cls-3" x1="21.03" y1="32.3" x2="28.87" y2="36.77"/><line class="cls-3" x1="20.99" y1="32.65" x2="22.04" y2="42.84"/><line class="cls-3" x1="9.87" y1="36.08" x2="20.99" y2="32.71"/><line class="cls-3" x1="15.92" y1="34.26" x2="18.61" y2="44.88"/></svg>