<?xml version="1.0" encoding="utf-8"?>
<!-- Generator: Adobe Illustrator 23.1.0, SVG Export Plug-In . SVG Version: 6.00 Build 0)  -->
<svg version="1.1" id="Layer_1" xmlns="http://www.w3.org/2000/svg" xmlns:xlink="http://www.w3.org/1999/xlink" x="0px" y="0px"
	 viewBox="0 0 100 100" style="enable-background:new 0 0 100 100;" xml:space="preserve">
<style type="text/css">
	.st0{fill-rule:evenodd;clip-rule:evenodd;}
</style>
<title>geo-5d</title>
<desc>Created with Sketch.</desc>
<g>
	<g>
		<path class="st0" d="M10.8,20.3l25.9,9.9l0,25.3c0,0.1,0.1,0.1,0.1,0.2c0,0.1,0,0.2,0.1,0.3c0,0.1,0,0.1,0,0.2
			c0,0.1,0.1,0.1,0.2,0.1c0.1,0.1,0.1,0.1,0.2,0.1c0.1,0.1,0.1,0.1,0.2,0.2c0,0,0,0,0,0L63.7,69l0,25.9L10.9,70.1L10.8,20.3z
			 M63.7,38.6L39.5,53.1l0-23.1l24.1-14.7L63.7,38.6z M90.2,77.3L66.5,94.4l0-25.5l25.3-14.7L90.2,77.3z M94.8,51.9
			c0-0.1-0.1-0.2-0.1-0.3c0-0.1,0-0.3-0.1-0.4c0,0,0-0.1,0-0.1c0,0-0.1,0-0.1-0.1c-0.1-0.1-0.2-0.2-0.3-0.2
			c-0.1-0.1-0.1-0.2-0.2-0.2L66.4,38.5l0-25.4c0-0.1-0.1-0.2-0.1-0.2c0-0.2-0.1-0.3-0.2-0.4c-0.1-0.1-0.2-0.2-0.4-0.3
			c-0.1-0.1-0.1-0.1-0.2-0.2L37.7,1.4c0,0-0.1,0-0.1,0c-0.2-0.1-0.3,0-0.5,0c-0.2,0-0.3,0-0.5,0.1c0,0-0.1,0-0.1,0L8.7,17.2
			c-0.1,0-0.1,0.1-0.1,0.1c-0.1,0.1-0.2,0.2-0.3,0.3c-0.1,0.1-0.2,0.1-0.2,0.2c0,0,0,0.1,0,0.1c0,0.1,0,0.2,0,0.2
			c0,0.1-0.1,0.1-0.1,0.2l0,52.1c0,0.1,0.1,0.2,0.1,0.3c0,0.5,0.1,1,0.7,1.3l55.6,26.2c0.2,0.1,0.4,0.1,0.6,0.1
			c0.3,0,0.5-0.1,0.8-0.2c0,0,0,0,0.1,0L92.4,79c0,0,0,0,0-0.1c0.2-0.1,0.2-0.3,0.3-0.5c0.1-0.1,0.2-0.2,0.2-0.3c0,0,0,0,0,0
			L94.8,51.9z"/>
	</g>
</g>
</svg>
